<svg xmlns="http://www.w3.org/2000/svg" width="1600" height="900" viewBox="0 0 1600 900" role="img" aria-label="Star Top 10, last 42 days">
<defs><linearGradient id="cardbg" x1="0" y1="0" x2="0" y2="1"><stop offset="0" stop-color="#212121"/><stop offset="1" stop-color="#1d1d1d"/></linearGradient><linearGradient id="ls-0" x1="0" y1="0" x2="1" y2="0"><stop offset="0" stop-color="#ff8f00" stop-opacity="0.25"/><stop offset="0.55" stop-color="#ff8f00" stop-opacity="0.7"/><stop offset="1" stop-color="#ff8f00"/></linearGradient><linearGradient id="as-0" x1="0" y1="0" x2="0" y2="1"><stop offset="0" stop-color="#ff8f00" stop-opacity="0.1"/><stop offset="1" stop-color="#ff8f00" stop-opacity="0"/></linearGradient><linearGradient id="ls-1" x1="0" y1="0" x2="1" y2="0"><stop offset="0" stop-color="#b87aff" stop-opacity="0.25"/><stop offset="0.55" stop-color="#b87aff" stop-opacity="0.7"/><stop offset="1" stop-color="#b87aff"/></linearGradient><linearGradient id="as-1" x1="0" y1="0" x2="0" y2="1"><stop offset="0" stop-color="#b87aff" stop-opacity="0.1"/><stop offset="1" stop-color="#b87aff" stop-opacity="0"/></linearGradient><linearGradient id="ls-2" x1="0" y1="0" x2="1" y2="0"><stop offset="0" stop-color="#42aa00" stop-opacity="0.25"/><stop offset="0.55" stop-color="#42aa00" stop-opacity="0.7"/><stop offset="1" stop-color="#42aa00"/></linearGradient><linearGradient id="as-2" x1="0" y1="0" x2="0" y2="1"><stop offset="0" stop-color="#42aa00" stop-opacity="0.1"/><stop offset="1" stop-color="#42aa00" stop-opacity="0"/></linearGradient><linearGradient id="ls-3" x1="0" y1="0" x2="1" y2="0"><stop offset="0" stop-color="#d97706" stop-opacity="0.25"/><stop offset="0.55" stop-color="#d97706" stop-opacity="0.7"/><stop offset="1" stop-color="#d97706"/></linearGradient><linearGradient id="as-3" x1="0" y1="0" x2="0" y2="1"><stop offset="0" stop-color="#d97706" stop-opacity="0.1"/><stop offset="1" stop-color="#d97706" stop-opacity="0"/></linearGradient><linearGradient id="ls-4" x1="0" y1="0" x2="1" y2="0"><stop offset="0" stop-color="#f35248" stop-opacity="0.25"/><stop offset="0.55" stop-color="#f35248" stop-opacity="0.7"/><stop offset="1" stop-color="#f35248"/></linearGradient><linearGradient id="as-4" x1="0" y1="0" x2="0" y2="1"><stop offset="0" stop-color="#f35248" stop-opacity="0.1"/><stop offset="1" stop-color="#f35248" stop-opacity="0"/></linearGradient><linearGradient id="ls-5" x1="0" y1="0" x2="1" y2="0"><stop offset="0" stop-color="#2563eb" stop-opacity="0.25"/><stop offset="0.55" stop-color="#2563eb" stop-opacity="0.7"/><stop offset="1" stop-color="#2563eb"/></linearGradient><linearGradient id="as-5" x1="0" y1="0" x2="0" y2="1"><stop offset="0" stop-color="#2563eb" stop-opacity="0.1"/><stop offset="1" stop-color="#2563eb" stop-opacity="0"/></linearGradient><linearGradient id="ls-6" x1="0" y1="0" x2="1" y2="0"><stop offset="0" stop-color="#e3d4f6" stop-opacity="0.25"/><stop offset="0.55" stop-color="#e3d4f6" stop-opacity="0.7"/><stop offset="1" stop-color="#e3d4f6"/></linearGradient><linearGradient id="as-6" x1="0" y1="0" x2="0" y2="1"><stop offset="0" stop-color="#e3d4f6" stop-opacity="0.1"/><stop offset="1" stop-color="#e3d4f6" stop-opacity="0"/></linearGradient><linearGradient id="ls-7" x1="0" y1="0" x2="1" y2="0"><stop offset="0" stop-color="#16a34a" stop-opacity="0.25"/><stop offset="0.55" stop-color="#16a34a" stop-opacity="0.7"/><stop offset="1" stop-color="#16a34a"/></linearGradient><linearGradient id="as-7" x1="0" y1="0" x2="0" y2="1"><stop offset="0" stop-color="#16a34a" stop-opacity="0.1"/><stop offset="1" stop-color="#16a34a" stop-opacity="0"/></linearGradient></defs>
<rect width="1600" height="900" rx="16" fill="url(#cardbg)"/>
<rect x="0.75" y="0.75" width="1598.5" height="898.5" rx="16" fill="none" stroke="#3d3d3d" stroke-width="1.5"/>
<polygon points="84.0,57.0 88.7,69.5 102.1,70.1 91.6,78.5 95.2,91.4 84.0,84.0 72.8,91.4 76.4,78.5 65.9,70.1 79.3,69.5" fill="#ff8f00"/>
<text x="118" y="90" font-family="-apple-system,BlinkMacSystemFont,&quot;Segoe UI&quot;,&quot;Noto Sans CJK SC&quot;,&quot;PingFang SC&quot;,&quot;Microsoft YaHei&quot;,Helvetica,Arial,sans-serif" font-size="38" font-weight="700" fill="#ff8f00">Star Top 10</text>
<text x="118" y="128" font-family="-apple-system,BlinkMacSystemFont,&quot;Segoe UI&quot;,&quot;Noto Sans CJK SC&quot;,&quot;PingFang SC&quot;,&quot;Microsoft YaHei&quot;,Helvetica,Arial,sans-serif" font-size="21" fill="#9e9e9e">2026.8.7 – 2026.9.18 · @dddpeter · 最近 42 天</text>
<text x="1536" y="90" font-family="-apple-system,BlinkMacSystemFont,&quot;Segoe UI&quot;,&quot;Noto Sans CJK SC&quot;,&quot;PingFang SC&quot;,&quot;Microsoft YaHei&quot;,Helvetica,Arial,sans-serif" font-size="18" fill="#9e9e9e" text-anchor="end">生成于 2026-09-18</text>
<line x1="64" y1="152" x2="1536" y2="152" stroke="#2e2e2e" stroke-width="1.5"/>
<line x1="100" y1="776" x2="1016" y2="776" stroke="#484848" stroke-width="1.6"/>
<text x="84" y="782" font-family="-apple-system,BlinkMacSystemFont,&quot;Segoe UI&quot;,&quot;Noto Sans CJK SC&quot;,&quot;PingFang SC&quot;,&quot;Microsoft YaHei&quot;,Helvetica,Arial,sans-serif" font-size="19" fill="#9e9e9e" text-anchor="end">0</text>
<line x1="100" y1="631" x2="1016" y2="631" stroke="#2a2a2a" stroke-width="1"/>
<text x="84" y="637" font-family="-apple-system,BlinkMacSystemFont,&quot;Segoe UI&quot;,&quot;Noto Sans CJK SC&quot;,&quot;PingFang SC&quot;,&quot;Microsoft YaHei&quot;,Helvetica,Arial,sans-serif" font-size="19" fill="#9e9e9e" text-anchor="end">5</text>
<line x1="100" y1="486" x2="1016" y2="486" stroke="#2a2a2a" stroke-width="1"/>
<text x="84" y="492" font-family="-apple-system,BlinkMacSystemFont,&quot;Segoe UI&quot;,&quot;Noto Sans CJK SC&quot;,&quot;PingFang SC&quot;,&quot;Microsoft YaHei&quot;,Helvetica,Arial,sans-serif" font-size="19" fill="#9e9e9e" text-anchor="end">10</text>
<line x1="100" y1="341" x2="1016" y2="341" stroke="#2a2a2a" stroke-width="1"/>
<text x="84" y="347" font-family="-apple-system,BlinkMacSystemFont,&quot;Segoe UI&quot;,&quot;Noto Sans CJK SC&quot;,&quot;PingFang SC&quot;,&quot;Microsoft YaHei&quot;,Helvetica,Arial,sans-serif" font-size="19" fill="#9e9e9e" text-anchor="end">15</text>
<line x1="100" y1="196" x2="1016" y2="196" stroke="#2a2a2a" stroke-width="1"/>
<text x="84" y="202" font-family="-apple-system,BlinkMacSystemFont,&quot;Segoe UI&quot;,&quot;Noto Sans CJK SC&quot;,&quot;PingFang SC&quot;,&quot;Microsoft YaHei&quot;,Helvetica,Arial,sans-serif" font-size="19" fill="#9e9e9e" text-anchor="end">20</text>
<text x="100" y="180" font-family="-apple-system,BlinkMacSystemFont,&quot;Segoe UI&quot;,&quot;Noto Sans CJK SC&quot;,&quot;PingFang SC&quot;,&quot;Microsoft YaHei&quot;,Helvetica,Arial,sans-serif" font-size="18" fill="#9e9e9e">Stars</text>
<text x="100" y="808" font-family="-apple-system,BlinkMacSystemFont,&quot;Segoe UI&quot;,&quot;Noto Sans CJK SC&quot;,&quot;PingFang SC&quot;,&quot;Microsoft YaHei&quot;,Helvetica,Arial,sans-serif" font-size="19" fill="#9e9e9e" text-anchor="middle">8.7</text>
<text x="252.66666666666666" y="808" font-family="-apple-system,BlinkMacSystemFont,&quot;Segoe UI&quot;,&quot;Noto Sans CJK SC&quot;,&quot;PingFang SC&quot;,&quot;Microsoft YaHei&quot;,Helvetica,Arial,sans-serif" font-size="19" fill="#9e9e9e" text-anchor="middle">8.14</text>
<text x="405.3333333333333" y="808" font-family="-apple-system,BlinkMacSystemFont,&quot;Segoe UI&quot;,&quot;Noto Sans CJK SC&quot;,&quot;PingFang SC&quot;,&quot;Microsoft YaHei&quot;,Helvetica,Arial,sans-serif" font-size="19" fill="#9e9e9e" text-anchor="middle">8.21</text>
<text x="558" y="808" font-family="-apple-system,BlinkMacSystemFont,&quot;Segoe UI&quot;,&quot;Noto Sans CJK SC&quot;,&quot;PingFang SC&quot;,&quot;Microsoft YaHei&quot;,Helvetica,Arial,sans-serif" font-size="19" fill="#9e9e9e" text-anchor="middle">8.28</text>
<text x="710.6666666666666" y="808" font-family="-apple-system,BlinkMacSystemFont,&quot;Segoe UI&quot;,&quot;Noto Sans CJK SC&quot;,&quot;PingFang SC&quot;,&quot;Microsoft YaHei&quot;,Helvetica,Arial,sans-serif" font-size="19" fill="#9e9e9e" text-anchor="middle">9.4</text>
<text x="863.3333333333334" y="808" font-family="-apple-system,BlinkMacSystemFont,&quot;Segoe UI&quot;,&quot;Noto Sans CJK SC&quot;,&quot;PingFang SC&quot;,&quot;Microsoft YaHei&quot;,Helvetica,Arial,sans-serif" font-size="19" fill="#9e9e9e" text-anchor="middle">9.11</text>
<text x="1016" y="808" font-family="-apple-system,BlinkMacSystemFont,&quot;Segoe UI&quot;,&quot;Noto Sans CJK SC&quot;,&quot;PingFang SC&quot;,&quot;Microsoft YaHei&quot;,Helvetica,Arial,sans-serif" font-size="19" fill="#9e9e9e" text-anchor="middle">9.18</text>
<path d="M100.0,776.0C107.3,776.0 114.5,776.0 121.8,776.0C129.1,776.0 136.3,776.0 143.6,776.0C150.9,776.0 158.2,776.0 165.4,776.0C172.7,776.0 180.0,776.0 187.2,776.0C194.5,776.0 201.8,776.0 209.0,776.0C216.3,776.0 223.6,776.0 230.9,776.0C238.1,776.0 245.4,776.0 252.7,776.0C259.9,776.0 267.2,776.0 274.5,776.0C281.7,776.0 289.0,776.0 296.3,776.0C303.6,776.0 310.8,776.0 318.1,776.0C325.4,776.0 332.6,776.0 339.9,776.0C347.2,776.0 354.4,776.0 361.7,776.0C369.0,776.0 376.3,776.0 383.5,776.0C390.8,776.0 398.1,776.0 405.3,776.0C412.6,776.0 419.9,776.0 427.1,776.0C434.4,776.0 441.7,776.0 449.0,776.0C456.2,776.0 463.5,776.0 470.8,776.0C478.0,776.0 485.3,776.0 492.6,776.0C499.8,776.0 507.1,776.0 514.4,776.0C521.7,776.0 528.9,776.0 536.2,776.0C543.5,776.0 550.7,776.0 558.0,776.0C565.3,776.0 572.5,776.0 579.8,776.0C587.1,776.0 594.3,776.0 601.6,776.0C608.9,776.0 616.2,776.0 623.4,776.0C630.7,776.0 638.0,776.0 645.2,776.0C652.5,776.0 659.8,776.0 667.0,776.0C674.3,776.0 681.6,776.0 688.9,776.0C696.1,776.0 703.4,776.0 710.7,776.0C717.9,776.0 725.2,776.0 732.5,776.0C739.7,776.0 747.0,776.0 754.3,776.0C761.6,776.0 768.8,776.0 776.1,776.0C783.4,776.0 790.6,776.0 797.9,776.0C805.2,776.0 812.4,776.0 819.7,776.0C827.0,776.0 834.3,776.0 841.5,776.0C848.8,776.0 856.1,776.0 863.3,776.0C870.6,776.0 877.9,776.0 885.1,776.0C892.4,776.0 899.7,776.0 907.0,776.0C914.2,776.0 921.5,747.0 928.8,747.0C936.0,747.0 943.3,747.0 950.6,747.0C957.8,747.0 965.1,747.0 972.4,747.0C979.7,747.0 986.9,747.0 994.2,747.0C1001.5,747.0 1008.7,747.0 1016.0,747.0L1016.0,776 L100.0,776 Z" fill="url(#as-7)" stroke="none"/>
<path d="M100.0,776.0C107.3,776.0 114.5,776.0 121.8,776.0C129.1,776.0 136.3,776.0 143.6,776.0C150.9,776.0 158.2,776.0 165.4,776.0C172.7,776.0 180.0,776.0 187.2,776.0C194.5,776.0 201.8,776.0 209.0,776.0C216.3,776.0 223.6,776.0 230.9,776.0C238.1,776.0 245.4,776.0 252.7,776.0C259.9,776.0 267.2,776.0 274.5,776.0C281.7,776.0 289.0,776.0 296.3,776.0C303.6,776.0 310.8,776.0 318.1,776.0C325.4,776.0 332.6,776.0 339.9,776.0C347.2,776.0 354.4,776.0 361.7,776.0C369.0,776.0 376.3,776.0 383.5,776.0C390.8,776.0 398.1,776.0 405.3,776.0C412.6,776.0 419.9,776.0 427.1,776.0C434.4,776.0 441.7,776.0 449.0,776.0C456.2,776.0 463.5,776.0 470.8,776.0C478.0,776.0 485.3,776.0 492.6,776.0C499.8,776.0 507.1,776.0 514.4,776.0C521.7,776.0 528.9,776.0 536.2,776.0C543.5,776.0 550.7,776.0 558.0,776.0C565.3,776.0 572.5,776.0 579.8,776.0C587.1,776.0 594.3,776.0 601.6,776.0C608.9,776.0 616.2,776.0 623.4,776.0C630.7,776.0 638.0,776.0 645.2,776.0C652.5,776.0 659.8,776.0 667.0,776.0C674.3,776.0 681.6,776.0 688.9,776.0C696.1,776.0 703.4,776.0 710.7,776.0C717.9,776.0 725.2,776.0 732.5,776.0C739.7,776.0 747.0,776.0 754.3,776.0C761.6,776.0 768.8,776.0 776.1,776.0C783.4,776.0 790.6,776.0 797.9,776.0C805.2,776.0 812.4,776.0 819.7,776.0C827.0,776.0 834.3,776.0 841.5,776.0C848.8,776.0 856.1,776.0 863.3,776.0C870.6,776.0 877.9,776.0 885.1,776.0C892.4,776.0 899.7,776.0 907.0,776.0C914.2,776.0 921.5,747.0 928.8,747.0C936.0,747.0 943.3,747.0 950.6,747.0C957.8,747.0 965.1,747.0 972.4,747.0C979.7,747.0 986.9,747.0 994.2,747.0C1001.5,747.0 1008.7,747.0 1016.0,747.0L1016.0,776 L100.0,776 Z" fill="url(#as-6)" stroke="none"/>
<path d="M100.0,776.0C107.3,776.0 114.5,776.0 121.8,776.0C129.1,776.0 136.3,776.0 143.6,776.0C150.9,776.0 158.2,776.0 165.4,776.0C172.7,776.0 180.0,776.0 187.2,776.0C194.5,776.0 201.8,776.0 209.0,776.0C216.3,776.0 223.6,776.0 230.9,776.0C238.1,776.0 245.4,776.0 252.7,776.0C259.9,776.0 267.2,776.0 274.5,776.0C281.7,776.0 289.0,776.0 296.3,776.0C303.6,776.0 310.8,776.0 318.1,776.0C325.4,776.0 332.6,776.0 339.9,776.0C347.2,776.0 354.4,776.0 361.7,776.0C369.0,776.0 376.3,776.0 383.5,776.0C390.8,776.0 398.1,776.0 405.3,776.0C412.6,776.0 419.9,776.0 427.1,776.0C434.4,776.0 441.7,776.0 449.0,776.0C456.2,776.0 463.5,776.0 470.8,776.0C478.0,776.0 485.3,776.0 492.6,776.0C499.8,776.0 507.1,776.0 514.4,776.0C521.7,776.0 528.9,776.0 536.2,776.0C543.5,776.0 550.7,776.0 558.0,776.0C565.3,776.0 572.5,776.0 579.8,776.0C587.1,776.0 594.3,776.0 601.6,776.0C608.9,776.0 616.2,776.0 623.4,776.0C630.7,776.0 638.0,776.0 645.2,776.0C652.5,776.0 659.8,776.0 667.0,776.0C674.3,776.0 681.6,776.0 688.9,776.0C696.1,776.0 703.4,776.0 710.7,776.0C717.9,776.0 725.2,776.0 732.5,776.0C739.7,776.0 747.0,776.0 754.3,776.0C761.6,776.0 768.8,776.0 776.1,776.0C783.4,776.0 790.6,776.0 797.9,776.0C805.2,776.0 812.4,776.0 819.7,776.0C827.0,776.0 834.3,776.0 841.5,776.0C848.8,776.0 856.1,776.0 863.3,776.0C870.6,776.0 877.9,776.0 885.1,776.0C892.4,776.0 899.7,776.0 907.0,776.0C914.2,776.0 921.5,747.0 928.8,747.0C936.0,747.0 943.3,747.0 950.6,747.0C957.8,747.0 965.1,747.0 972.4,747.0C979.7,747.0 986.9,747.0 994.2,747.0C1001.5,747.0 1008.7,747.0 1016.0,747.0L1016.0,776 L100.0,776 Z" fill="url(#as-5)" stroke="none"/>
<path d="M100.0,776.0C107.3,776.0 114.5,776.0 121.8,776.0C129.1,776.0 136.3,776.0 143.6,776.0C150.9,776.0 158.2,776.0 165.4,776.0C172.7,776.0 180.0,776.0 187.2,776.0C194.5,776.0 201.8,776.0 209.0,776.0C216.3,776.0 223.6,776.0 230.9,776.0C238.1,776.0 245.4,776.0 252.7,776.0C259.9,776.0 267.2,776.0 274.5,776.0C281.7,776.0 289.0,776.0 296.3,776.0C303.6,776.0 310.8,776.0 318.1,776.0C325.4,776.0 332.6,776.0 339.9,776.0C347.2,776.0 354.4,776.0 361.7,776.0C369.0,776.0 376.3,776.0 383.5,776.0C390.8,776.0 398.1,776.0 405.3,776.0C412.6,776.0 419.9,776.0 427.1,776.0C434.4,776.0 441.7,776.0 449.0,776.0C456.2,776.0 463.5,776.0 470.8,776.0C478.0,776.0 485.3,776.0 492.6,776.0C499.8,776.0 507.1,776.0 514.4,776.0C521.7,776.0 528.9,776.0 536.2,776.0C543.5,776.0 550.7,776.0 558.0,776.0C565.3,776.0 572.5,776.0 579.8,776.0C587.1,776.0 594.3,776.0 601.6,776.0C608.9,776.0 616.2,776.0 623.4,776.0C630.7,776.0 638.0,776.0 645.2,776.0C652.5,776.0 659.8,776.0 667.0,776.0C674.3,776.0 681.6,776.0 688.9,776.0C696.1,776.0 703.4,776.0 710.7,776.0C717.9,776.0 725.2,776.0 732.5,776.0C739.7,776.0 747.0,776.0 754.3,776.0C761.6,776.0 768.8,776.0 776.1,776.0C783.4,776.0 790.6,776.0 797.9,776.0C805.2,776.0 812.4,776.0 819.7,776.0C827.0,776.0 834.3,776.0 841.5,776.0C848.8,776.0 856.1,776.0 863.3,776.0C870.6,776.0 877.9,776.0 885.1,776.0C892.4,776.0 899.7,776.0 907.0,776.0C914.2,776.0 921.5,747.0 928.8,747.0C936.0,747.0 943.3,747.0 950.6,747.0C957.8,747.0 965.1,747.0 972.4,747.0C979.7,747.0 986.9,747.0 994.2,747.0C1001.5,747.0 1008.7,747.0 1016.0,747.0L1016.0,776 L100.0,776 Z" fill="url(#as-4)" stroke="none"/>
<path d="M100.0,776.0C107.3,776.0 114.5,776.0 121.8,776.0C129.1,776.0 136.3,776.0 143.6,776.0C150.9,776.0 158.2,776.0 165.4,776.0C172.7,776.0 180.0,776.0 187.2,776.0C194.5,776.0 201.8,776.0 209.0,776.0C216.3,776.0 223.6,776.0 230.9,776.0C238.1,776.0 245.4,776.0 252.7,776.0C259.9,776.0 267.2,776.0 274.5,776.0C281.7,776.0 289.0,776.0 296.3,776.0C303.6,776.0 310.8,776.0 318.1,776.0C325.4,776.0 332.6,776.0 339.9,776.0C347.2,776.0 354.4,776.0 361.7,776.0C369.0,776.0 376.3,776.0 383.5,776.0C390.8,776.0 398.1,776.0 405.3,776.0C412.6,776.0 419.9,776.0 427.1,776.0C434.4,776.0 441.7,776.0 449.0,776.0C456.2,776.0 463.5,776.0 470.8,776.0C478.0,776.0 485.3,776.0 492.6,776.0C499.8,776.0 507.1,776.0 514.4,776.0C521.7,776.0 528.9,776.0 536.2,776.0C543.5,776.0 550.7,776.0 558.0,776.0C565.3,776.0 572.5,776.0 579.8,776.0C587.1,776.0 594.3,776.0 601.6,776.0C608.9,776.0 616.2,776.0 623.4,776.0C630.7,776.0 638.0,776.0 645.2,776.0C652.5,776.0 659.8,776.0 667.0,776.0C674.3,776.0 681.6,776.0 688.9,776.0C696.1,776.0 703.4,776.0 710.7,776.0C717.9,776.0 725.2,776.0 732.5,776.0C739.7,776.0 747.0,776.0 754.3,776.0C761.6,776.0 768.8,776.0 776.1,776.0C783.4,776.0 790.6,776.0 797.9,776.0C805.2,776.0 812.4,776.0 819.7,776.0C827.0,776.0 834.3,776.0 841.5,776.0C848.8,776.0 856.1,776.0 863.3,776.0C870.6,776.0 877.9,776.0 885.1,776.0C892.4,776.0 899.7,776.0 907.0,776.0C914.2,776.0 921.5,747.0 928.8,747.0C936.0,747.0 943.3,747.0 950.6,747.0C957.8,747.0 965.1,747.0 972.4,747.0C979.7,747.0 986.9,747.0 994.2,747.0C1001.5,747.0 1008.7,747.0 1016.0,747.0L1016.0,776 L100.0,776 Z" fill="url(#as-3)" stroke="none"/>
<path d="M100.0,776.0C107.3,776.0 114.5,776.0 121.8,776.0C129.1,776.0 136.3,776.0 143.6,776.0C150.9,776.0 158.2,776.0 165.4,776.0C172.7,776.0 180.0,776.0 187.2,776.0C194.5,776.0 201.8,776.0 209.0,776.0C216.3,776.0 223.6,776.0 230.9,776.0C238.1,776.0 245.4,776.0 252.7,776.0C259.9,776.0 267.2,776.0 274.5,776.0C281.7,776.0 289.0,776.0 296.3,776.0C303.6,776.0 310.8,776.0 318.1,776.0C325.4,776.0 332.6,776.0 339.9,776.0C347.2,776.0 354.4,776.0 361.7,776.0C369.0,776.0 376.3,776.0 383.5,776.0C390.8,776.0 398.1,776.0 405.3,776.0C412.6,776.0 419.9,776.0 427.1,776.0C434.4,776.0 441.7,776.0 449.0,776.0C456.2,776.0 463.5,776.0 470.8,776.0C478.0,776.0 485.3,776.0 492.6,776.0C499.8,776.0 507.1,776.0 514.4,776.0C521.7,776.0 528.9,776.0 536.2,776.0C543.5,776.0 550.7,776.0 558.0,776.0C565.3,776.0 572.5,776.0 579.8,776.0C587.1,776.0 594.3,776.0 601.6,776.0C608.9,776.0 616.2,776.0 623.4,776.0C630.7,776.0 638.0,776.0 645.2,776.0C652.5,776.0 659.8,776.0 667.0,776.0C674.3,776.0 681.6,776.0 688.9,776.0C696.1,776.0 703.4,776.0 710.7,776.0C717.9,776.0 725.2,776.0 732.5,776.0C739.7,776.0 747.0,776.0 754.3,776.0C761.6,776.0 768.8,776.0 776.1,776.0C783.4,776.0 790.6,776.0 797.9,776.0C805.2,776.0 812.4,776.0 819.7,776.0C827.0,776.0 834.3,776.0 841.5,776.0C848.8,776.0 856.1,776.0 863.3,776.0C870.6,776.0 877.9,776.0 885.1,776.0C892.4,776.0 899.7,776.0 907.0,776.0C914.2,776.0 921.5,747.0 928.8,747.0C936.0,747.0 943.3,747.0 950.6,747.0C957.8,747.0 965.1,747.0 972.4,747.0C979.7,747.0 986.9,747.0 994.2,747.0C1001.5,747.0 1008.7,747.0 1016.0,747.0L1016.0,776 L100.0,776 Z" fill="url(#as-2)" stroke="none"/>
<path d="M100.0,776.0C107.3,776.0 114.5,776.0 121.8,776.0C129.1,776.0 136.3,776.0 143.6,776.0C150.9,776.0 158.2,776.0 165.4,776.0C172.7,776.0 180.0,776.0 187.2,776.0C194.5,776.0 201.8,776.0 209.0,776.0C216.3,776.0 223.6,776.0 230.9,776.0C238.1,776.0 245.4,776.0 252.7,776.0C259.9,776.0 267.2,776.0 274.5,776.0C281.7,776.0 289.0,776.0 296.3,776.0C303.6,776.0 310.8,776.0 318.1,776.0C325.4,776.0 332.6,776.0 339.9,776.0C347.2,776.0 354.4,776.0 361.7,776.0C369.0,776.0 376.3,776.0 383.5,776.0C390.8,776.0 398.1,776.0 405.3,776.0C412.6,776.0 419.9,776.0 427.1,776.0C434.4,776.0 441.7,776.0 449.0,776.0C456.2,776.0 463.5,776.0 470.8,776.0C478.0,776.0 485.3,776.0 492.6,776.0C499.8,776.0 507.1,776.0 514.4,776.0C521.7,776.0 528.9,776.0 536.2,776.0C543.5,776.0 550.7,776.0 558.0,776.0C565.3,776.0 572.5,776.0 579.8,776.0C587.1,776.0 594.3,776.0 601.6,776.0C608.9,776.0 616.2,776.0 623.4,776.0C630.7,776.0 638.0,776.0 645.2,776.0C652.5,776.0 659.8,776.0 667.0,776.0C674.3,776.0 681.6,776.0 688.9,776.0C696.1,776.0 703.4,776.0 710.7,776.0C717.9,776.0 725.2,776.0 732.5,776.0C739.7,776.0 747.0,776.0 754.3,776.0C761.6,776.0 768.8,776.0 776.1,776.0C783.4,776.0 790.6,776.0 797.9,776.0C805.2,776.0 812.4,776.0 819.7,776.0C827.0,776.0 834.3,776.0 841.5,776.0C848.8,776.0 856.1,776.0 863.3,776.0C870.6,776.0 877.9,776.0 885.1,776.0C892.4,776.0 899.7,776.0 907.0,776.0C914.2,776.0 921.5,747.0 928.8,747.0C936.0,747.0 943.3,747.0 950.6,747.0C957.8,747.0 965.1,747.0 972.4,747.0C979.7,747.0 986.9,747.0 994.2,747.0C1001.5,747.0 1008.7,747.0 1016.0,747.0L1016.0,776 L100.0,776 Z" fill="url(#as-1)" stroke="none"/>
<path d="M100.0,776.0C107.3,776.0 114.5,776.0 121.8,776.0C129.1,776.0 136.3,776.0 143.6,776.0C150.9,776.0 158.2,776.0 165.4,776.0C172.7,776.0 180.0,776.0 187.2,776.0C194.5,776.0 201.8,776.0 209.0,776.0C216.3,776.0 223.6,776.0 230.9,776.0C238.1,776.0 245.4,776.0 252.7,776.0C259.9,776.0 267.2,776.0 274.5,776.0C281.7,776.0 289.0,776.0 296.3,776.0C303.6,776.0 310.8,776.0 318.1,776.0C325.4,776.0 332.6,776.0 339.9,776.0C347.2,776.0 354.4,776.0 361.7,776.0C369.0,776.0 376.3,776.0 383.5,776.0C390.8,776.0 398.1,776.0 405.3,776.0C412.6,776.0 419.9,776.0 427.1,776.0C434.4,776.0 441.7,776.0 449.0,776.0C456.2,776.0 463.5,776.0 470.8,776.0C478.0,776.0 485.3,747.0 492.6,747.0C499.8,747.0 507.1,747.0 514.4,747.0C521.7,747.0 528.9,747.0 536.2,747.0C543.5,747.0 550.7,747.0 558.0,747.0C565.3,747.0 572.5,747.0 579.8,747.0C587.1,747.0 594.3,747.0 601.6,747.0C608.9,747.0 616.2,747.0 623.4,747.0C630.7,747.0 638.0,747.0 645.2,747.0C652.5,747.0 659.8,747.0 667.0,747.0C674.3,747.0 681.6,747.0 688.9,747.0C696.1,747.0 703.4,747.0 710.7,747.0C717.9,747.0 725.2,747.0 732.5,747.0C739.7,747.0 747.0,747.0 754.3,747.0C761.6,747.0 768.8,747.0 776.1,747.0C783.4,747.0 790.6,747.0 797.9,747.0C805.2,747.0 812.4,747.0 819.7,747.0C827.0,747.0 834.3,747.0 841.5,747.0C848.8,747.0 856.1,747.0 863.3,747.0C870.6,747.0 877.9,747.0 885.1,747.0C892.4,747.0 899.7,747.0 907.0,747.0C914.2,747.0 921.5,747.0 928.8,747.0C936.0,747.0 943.3,747.0 950.6,747.0C957.8,747.0 965.1,747.0 972.4,747.0C979.7,747.0 986.9,747.0 994.2,747.0C1001.5,747.0 1008.7,747.0 1016.0,747.0L1016.0,776 L100.0,776 Z" fill="url(#as-0)" stroke="none"/>
<path d="M100.0,776.0C107.3,776.0 114.5,776.0 121.8,776.0C129.1,776.0 136.3,776.0 143.6,776.0C150.9,776.0 158.2,776.0 165.4,776.0C172.7,776.0 180.0,776.0 187.2,776.0C194.5,776.0 201.8,776.0 209.0,776.0C216.3,776.0 223.6,776.0 230.9,776.0C238.1,776.0 245.4,776.0 252.7,776.0C259.9,776.0 267.2,776.0 274.5,776.0C281.7,776.0 289.0,776.0 296.3,776.0C303.6,776.0 310.8,776.0 318.1,776.0C325.4,776.0 332.6,776.0 339.9,776.0C347.2,776.0 354.4,776.0 361.7,776.0C369.0,776.0 376.3,776.0 383.5,776.0C390.8,776.0 398.1,776.0 405.3,776.0C412.6,776.0 419.9,776.0 427.1,776.0C434.4,776.0 441.7,776.0 449.0,776.0C456.2,776.0 463.5,776.0 470.8,776.0C478.0,776.0 485.3,776.0 492.6,776.0C499.8,776.0 507.1,776.0 514.4,776.0C521.7,776.0 528.9,776.0 536.2,776.0C543.5,776.0 550.7,776.0 558.0,776.0C565.3,776.0 572.5,776.0 579.8,776.0C587.1,776.0 594.3,776.0 601.6,776.0C608.9,776.0 616.2,776.0 623.4,776.0C630.7,776.0 638.0,776.0 645.2,776.0C652.5,776.0 659.8,776.0 667.0,776.0C674.3,776.0 681.6,776.0 688.9,776.0C696.1,776.0 703.4,776.0 710.7,776.0C717.9,776.0 725.2,776.0 732.5,776.0C739.7,776.0 747.0,776.0 754.3,776.0C761.6,776.0 768.8,776.0 776.1,776.0C783.4,776.0 790.6,776.0 797.9,776.0C805.2,776.0 812.4,776.0 819.7,776.0C827.0,776.0 834.3,776.0 841.5,776.0C848.8,776.0 856.1,776.0 863.3,776.0C870.6,776.0 877.9,776.0 885.1,776.0C892.4,776.0 899.7,776.0 907.0,776.0C914.2,776.0 921.5,747.0 928.8,747.0C936.0,747.0 943.3,747.0 950.6,747.0C957.8,747.0 965.1,747.0 972.4,747.0C979.7,747.0 986.9,747.0 994.2,747.0C1001.5,747.0 1008.7,747.0 1016.0,747.0" fill="none" stroke="url(#ls-7)" stroke-width="3.5" stroke-linecap="round"/>
<circle cx="1016" cy="747" r="9" fill="#16a34a" fill-opacity="0.22"/>
<circle cx="1016" cy="747" r="4.5" fill="#16a34a"/>
<path d="M100.0,776.0C107.3,776.0 114.5,776.0 121.8,776.0C129.1,776.0 136.3,776.0 143.6,776.0C150.9,776.0 158.2,776.0 165.4,776.0C172.7,776.0 180.0,776.0 187.2,776.0C194.5,776.0 201.8,776.0 209.0,776.0C216.3,776.0 223.6,776.0 230.9,776.0C238.1,776.0 245.4,776.0 252.7,776.0C259.9,776.0 267.2,776.0 274.5,776.0C281.7,776.0 289.0,776.0 296.3,776.0C303.6,776.0 310.8,776.0 318.1,776.0C325.4,776.0 332.6,776.0 339.9,776.0C347.2,776.0 354.4,776.0 361.7,776.0C369.0,776.0 376.3,776.0 383.5,776.0C390.8,776.0 398.1,776.0 405.3,776.0C412.6,776.0 419.9,776.0 427.1,776.0C434.4,776.0 441.7,776.0 449.0,776.0C456.2,776.0 463.5,776.0 470.8,776.0C478.0,776.0 485.3,776.0 492.6,776.0C499.8,776.0 507.1,776.0 514.4,776.0C521.7,776.0 528.9,776.0 536.2,776.0C543.5,776.0 550.7,776.0 558.0,776.0C565.3,776.0 572.5,776.0 579.8,776.0C587.1,776.0 594.3,776.0 601.6,776.0C608.9,776.0 616.2,776.0 623.4,776.0C630.7,776.0 638.0,776.0 645.2,776.0C652.5,776.0 659.8,776.0 667.0,776.0C674.3,776.0 681.6,776.0 688.9,776.0C696.1,776.0 703.4,776.0 710.7,776.0C717.9,776.0 725.2,776.0 732.5,776.0C739.7,776.0 747.0,776.0 754.3,776.0C761.6,776.0 768.8,776.0 776.1,776.0C783.4,776.0 790.6,776.0 797.9,776.0C805.2,776.0 812.4,776.0 819.7,776.0C827.0,776.0 834.3,776.0 841.5,776.0C848.8,776.0 856.1,776.0 863.3,776.0C870.6,776.0 877.9,776.0 885.1,776.0C892.4,776.0 899.7,776.0 907.0,776.0C914.2,776.0 921.5,747.0 928.8,747.0C936.0,747.0 943.3,747.0 950.6,747.0C957.8,747.0 965.1,747.0 972.4,747.0C979.7,747.0 986.9,747.0 994.2,747.0C1001.5,747.0 1008.7,747.0 1016.0,747.0" fill="none" stroke="url(#ls-6)" stroke-width="3.5" stroke-linecap="round"/>
<circle cx="1016" cy="747" r="9" fill="#e3d4f6" fill-opacity="0.22"/>
<circle cx="1016" cy="747" r="4.5" fill="#e3d4f6"/>
<path d="M100.0,776.0C107.3,776.0 114.5,776.0 121.8,776.0C129.1,776.0 136.3,776.0 143.6,776.0C150.9,776.0 158.2,776.0 165.4,776.0C172.7,776.0 180.0,776.0 187.2,776.0C194.5,776.0 201.8,776.0 209.0,776.0C216.3,776.0 223.6,776.0 230.9,776.0C238.1,776.0 245.4,776.0 252.7,776.0C259.9,776.0 267.2,776.0 274.5,776.0C281.7,776.0 289.0,776.0 296.3,776.0C303.6,776.0 310.8,776.0 318.1,776.0C325.4,776.0 332.6,776.0 339.9,776.0C347.2,776.0 354.4,776.0 361.7,776.0C369.0,776.0 376.3,776.0 383.5,776.0C390.8,776.0 398.1,776.0 405.3,776.0C412.6,776.0 419.9,776.0 427.1,776.0C434.4,776.0 441.7,776.0 449.0,776.0C456.2,776.0 463.5,776.0 470.8,776.0C478.0,776.0 485.3,776.0 492.6,776.0C499.8,776.0 507.1,776.0 514.4,776.0C521.7,776.0 528.9,776.0 536.2,776.0C543.5,776.0 550.7,776.0 558.0,776.0C565.3,776.0 572.5,776.0 579.8,776.0C587.1,776.0 594.3,776.0 601.6,776.0C608.9,776.0 616.2,776.0 623.4,776.0C630.7,776.0 638.0,776.0 645.2,776.0C652.5,776.0 659.8,776.0 667.0,776.0C674.3,776.0 681.6,776.0 688.9,776.0C696.1,776.0 703.4,776.0 710.7,776.0C717.9,776.0 725.2,776.0 732.5,776.0C739.7,776.0 747.0,776.0 754.3,776.0C761.6,776.0 768.8,776.0 776.1,776.0C783.4,776.0 790.6,776.0 797.9,776.0C805.2,776.0 812.4,776.0 819.7,776.0C827.0,776.0 834.3,776.0 841.5,776.0C848.8,776.0 856.1,776.0 863.3,776.0C870.6,776.0 877.9,776.0 885.1,776.0C892.4,776.0 899.7,776.0 907.0,776.0C914.2,776.0 921.5,747.0 928.8,747.0C936.0,747.0 943.3,747.0 950.6,747.0C957.8,747.0 965.1,747.0 972.4,747.0C979.7,747.0 986.9,747.0 994.2,747.0C1001.5,747.0 1008.7,747.0 1016.0,747.0" fill="none" stroke="url(#ls-5)" stroke-width="3.5" stroke-linecap="round"/>
<circle cx="1016" cy="747" r="9" fill="#2563eb" fill-opacity="0.22"/>
<circle cx="1016" cy="747" r="4.5" fill="#2563eb"/>
<path d="M100.0,776.0C107.3,776.0 114.5,776.0 121.8,776.0C129.1,776.0 136.3,776.0 143.6,776.0C150.9,776.0 158.2,776.0 165.4,776.0C172.7,776.0 180.0,776.0 187.2,776.0C194.5,776.0 201.8,776.0 209.0,776.0C216.3,776.0 223.6,776.0 230.9,776.0C238.1,776.0 245.4,776.0 252.7,776.0C259.9,776.0 267.2,776.0 274.5,776.0C281.7,776.0 289.0,776.0 296.3,776.0C303.6,776.0 310.8,776.0 318.1,776.0C325.4,776.0 332.6,776.0 339.9,776.0C347.2,776.0 354.4,776.0 361.7,776.0C369.0,776.0 376.3,776.0 383.5,776.0C390.8,776.0 398.1,776.0 405.3,776.0C412.6,776.0 419.9,776.0 427.1,776.0C434.4,776.0 441.7,776.0 449.0,776.0C456.2,776.0 463.5,776.0 470.8,776.0C478.0,776.0 485.3,776.0 492.6,776.0C499.8,776.0 507.1,776.0 514.4,776.0C521.7,776.0 528.9,776.0 536.2,776.0C543.5,776.0 550.7,776.0 558.0,776.0C565.3,776.0 572.5,776.0 579.8,776.0C587.1,776.0 594.3,776.0 601.6,776.0C608.9,776.0 616.2,776.0 623.4,776.0C630.7,776.0 638.0,776.0 645.2,776.0C652.5,776.0 659.8,776.0 667.0,776.0C674.3,776.0 681.6,776.0 688.9,776.0C696.1,776.0 703.4,776.0 710.7,776.0C717.9,776.0 725.2,776.0 732.5,776.0C739.7,776.0 747.0,776.0 754.3,776.0C761.6,776.0 768.8,776.0 776.1,776.0C783.4,776.0 790.6,776.0 797.9,776.0C805.2,776.0 812.4,776.0 819.7,776.0C827.0,776.0 834.3,776.0 841.5,776.0C848.8,776.0 856.1,776.0 863.3,776.0C870.6,776.0 877.9,776.0 885.1,776.0C892.4,776.0 899.7,776.0 907.0,776.0C914.2,776.0 921.5,747.0 928.8,747.0C936.0,747.0 943.3,747.0 950.6,747.0C957.8,747.0 965.1,747.0 972.4,747.0C979.7,747.0 986.9,747.0 994.2,747.0C1001.5,747.0 1008.7,747.0 1016.0,747.0" fill="none" stroke="url(#ls-4)" stroke-width="3.5" stroke-linecap="round"/>
<circle cx="1016" cy="747" r="9" fill="#f35248" fill-opacity="0.22"/>
<circle cx="1016" cy="747" r="4.5" fill="#f35248"/>
<path d="M100.0,776.0C107.3,776.0 114.5,776.0 121.8,776.0C129.1,776.0 136.3,776.0 143.6,776.0C150.9,776.0 158.2,776.0 165.4,776.0C172.7,776.0 180.0,776.0 187.2,776.0C194.5,776.0 201.8,776.0 209.0,776.0C216.3,776.0 223.6,776.0 230.9,776.0C238.1,776.0 245.4,776.0 252.7,776.0C259.9,776.0 267.2,776.0 274.5,776.0C281.7,776.0 289.0,776.0 296.3,776.0C303.6,776.0 310.8,776.0 318.1,776.0C325.4,776.0 332.6,776.0 339.9,776.0C347.2,776.0 354.4,776.0 361.7,776.0C369.0,776.0 376.3,776.0 383.5,776.0C390.8,776.0 398.1,776.0 405.3,776.0C412.6,776.0 419.9,776.0 427.1,776.0C434.4,776.0 441.7,776.0 449.0,776.0C456.2,776.0 463.5,776.0 470.8,776.0C478.0,776.0 485.3,776.0 492.6,776.0C499.8,776.0 507.1,776.0 514.4,776.0C521.7,776.0 528.9,776.0 536.2,776.0C543.5,776.0 550.7,776.0 558.0,776.0C565.3,776.0 572.5,776.0 579.8,776.0C587.1,776.0 594.3,776.0 601.6,776.0C608.9,776.0 616.2,776.0 623.4,776.0C630.7,776.0 638.0,776.0 645.2,776.0C652.5,776.0 659.8,776.0 667.0,776.0C674.3,776.0 681.6,776.0 688.9,776.0C696.1,776.0 703.4,776.0 710.7,776.0C717.9,776.0 725.2,776.0 732.5,776.0C739.7,776.0 747.0,776.0 754.3,776.0C761.6,776.0 768.8,776.0 776.1,776.0C783.4,776.0 790.6,776.0 797.9,776.0C805.2,776.0 812.4,776.0 819.7,776.0C827.0,776.0 834.3,776.0 841.5,776.0C848.8,776.0 856.1,776.0 863.3,776.0C870.6,776.0 877.9,776.0 885.1,776.0C892.4,776.0 899.7,776.0 907.0,776.0C914.2,776.0 921.5,747.0 928.8,747.0C936.0,747.0 943.3,747.0 950.6,747.0C957.8,747.0 965.1,747.0 972.4,747.0C979.7,747.0 986.9,747.0 994.2,747.0C1001.5,747.0 1008.7,747.0 1016.0,747.0" fill="none" stroke="url(#ls-3)" stroke-width="3.5" stroke-linecap="round"/>
<circle cx="1016" cy="747" r="9" fill="#d97706" fill-opacity="0.22"/>
<circle cx="1016" cy="747" r="4.5" fill="#d97706"/>
<path d="M100.0,776.0C107.3,776.0 114.5,776.0 121.8,776.0C129.1,776.0 136.3,776.0 143.6,776.0C150.9,776.0 158.2,776.0 165.4,776.0C172.7,776.0 180.0,776.0 187.2,776.0C194.5,776.0 201.8,776.0 209.0,776.0C216.3,776.0 223.6,776.0 230.9,776.0C238.1,776.0 245.4,776.0 252.7,776.0C259.9,776.0 267.2,776.0 274.5,776.0C281.7,776.0 289.0,776.0 296.3,776.0C303.6,776.0 310.8,776.0 318.1,776.0C325.4,776.0 332.6,776.0 339.9,776.0C347.2,776.0 354.4,776.0 361.7,776.0C369.0,776.0 376.3,776.0 383.5,776.0C390.8,776.0 398.1,776.0 405.3,776.0C412.6,776.0 419.9,776.0 427.1,776.0C434.4,776.0 441.7,776.0 449.0,776.0C456.2,776.0 463.5,776.0 470.8,776.0C478.0,776.0 485.3,776.0 492.6,776.0C499.8,776.0 507.1,776.0 514.4,776.0C521.7,776.0 528.9,776.0 536.2,776.0C543.5,776.0 550.7,776.0 558.0,776.0C565.3,776.0 572.5,776.0 579.8,776.0C587.1,776.0 594.3,776.0 601.6,776.0C608.9,776.0 616.2,776.0 623.4,776.0C630.7,776.0 638.0,776.0 645.2,776.0C652.5,776.0 659.8,776.0 667.0,776.0C674.3,776.0 681.6,776.0 688.9,776.0C696.1,776.0 703.4,776.0 710.7,776.0C717.9,776.0 725.2,776.0 732.5,776.0C739.7,776.0 747.0,776.0 754.3,776.0C761.6,776.0 768.8,776.0 776.1,776.0C783.4,776.0 790.6,776.0 797.9,776.0C805.2,776.0 812.4,776.0 819.7,776.0C827.0,776.0 834.3,776.0 841.5,776.0C848.8,776.0 856.1,776.0 863.3,776.0C870.6,776.0 877.9,776.0 885.1,776.0C892.4,776.0 899.7,776.0 907.0,776.0C914.2,776.0 921.5,747.0 928.8,747.0C936.0,747.0 943.3,747.0 950.6,747.0C957.8,747.0 965.1,747.0 972.4,747.0C979.7,747.0 986.9,747.0 994.2,747.0C1001.5,747.0 1008.7,747.0 1016.0,747.0" fill="none" stroke="url(#ls-2)" stroke-width="3.5" stroke-linecap="round"/>
<circle cx="1016" cy="747" r="9" fill="#42aa00" fill-opacity="0.22"/>
<circle cx="1016" cy="747" r="4.5" fill="#42aa00"/>
<path d="M100.0,776.0C107.3,776.0 114.5,776.0 121.8,776.0C129.1,776.0 136.3,776.0 143.6,776.0C150.9,776.0 158.2,776.0 165.4,776.0C172.7,776.0 180.0,776.0 187.2,776.0C194.5,776.0 201.8,776.0 209.0,776.0C216.3,776.0 223.6,776.0 230.9,776.0C238.1,776.0 245.4,776.0 252.7,776.0C259.9,776.0 267.2,776.0 274.5,776.0C281.7,776.0 289.0,776.0 296.3,776.0C303.6,776.0 310.8,776.0 318.1,776.0C325.4,776.0 332.6,776.0 339.9,776.0C347.2,776.0 354.4,776.0 361.7,776.0C369.0,776.0 376.3,776.0 383.5,776.0C390.8,776.0 398.1,776.0 405.3,776.0C412.6,776.0 419.9,776.0 427.1,776.0C434.4,776.0 441.7,776.0 449.0,776.0C456.2,776.0 463.5,776.0 470.8,776.0C478.0,776.0 485.3,776.0 492.6,776.0C499.8,776.0 507.1,776.0 514.4,776.0C521.7,776.0 528.9,776.0 536.2,776.0C543.5,776.0 550.7,776.0 558.0,776.0C565.3,776.0 572.5,776.0 579.8,776.0C587.1,776.0 594.3,776.0 601.6,776.0C608.9,776.0 616.2,776.0 623.4,776.0C630.7,776.0 638.0,776.0 645.2,776.0C652.5,776.0 659.8,776.0 667.0,776.0C674.3,776.0 681.6,776.0 688.9,776.0C696.1,776.0 703.4,776.0 710.7,776.0C717.9,776.0 725.2,776.0 732.5,776.0C739.7,776.0 747.0,776.0 754.3,776.0C761.6,776.0 768.8,776.0 776.1,776.0C783.4,776.0 790.6,776.0 797.9,776.0C805.2,776.0 812.4,776.0 819.7,776.0C827.0,776.0 834.3,776.0 841.5,776.0C848.8,776.0 856.1,776.0 863.3,776.0C870.6,776.0 877.9,776.0 885.1,776.0C892.4,776.0 899.7,776.0 907.0,776.0C914.2,776.0 921.5,747.0 928.8,747.0C936.0,747.0 943.3,747.0 950.6,747.0C957.8,747.0 965.1,747.0 972.4,747.0C979.7,747.0 986.9,747.0 994.2,747.0C1001.5,747.0 1008.7,747.0 1016.0,747.0" fill="none" stroke="url(#ls-1)" stroke-width="3.5" stroke-linecap="round"/>
<circle cx="1016" cy="747" r="9" fill="#b87aff" fill-opacity="0.22"/>
<circle cx="1016" cy="747" r="4.5" fill="#b87aff"/>
<path d="M100.0,776.0C107.3,776.0 114.5,776.0 121.8,776.0C129.1,776.0 136.3,776.0 143.6,776.0C150.9,776.0 158.2,776.0 165.4,776.0C172.7,776.0 180.0,776.0 187.2,776.0C194.5,776.0 201.8,776.0 209.0,776.0C216.3,776.0 223.6,776.0 230.9,776.0C238.1,776.0 245.4,776.0 252.7,776.0C259.9,776.0 267.2,776.0 274.5,776.0C281.7,776.0 289.0,776.0 296.3,776.0C303.6,776.0 310.8,776.0 318.1,776.0C325.4,776.0 332.6,776.0 339.9,776.0C347.2,776.0 354.4,776.0 361.7,776.0C369.0,776.0 376.3,776.0 383.5,776.0C390.8,776.0 398.1,776.0 405.3,776.0C412.6,776.0 419.9,776.0 427.1,776.0C434.4,776.0 441.7,776.0 449.0,776.0C456.2,776.0 463.5,776.0 470.8,776.0C478.0,776.0 485.3,747.0 492.6,747.0C499.8,747.0 507.1,747.0 514.4,747.0C521.7,747.0 528.9,747.0 536.2,747.0C543.5,747.0 550.7,747.0 558.0,747.0C565.3,747.0 572.5,747.0 579.8,747.0C587.1,747.0 594.3,747.0 601.6,747.0C608.9,747.0 616.2,747.0 623.4,747.0C630.7,747.0 638.0,747.0 645.2,747.0C652.5,747.0 659.8,747.0 667.0,747.0C674.3,747.0 681.6,747.0 688.9,747.0C696.1,747.0 703.4,747.0 710.7,747.0C717.9,747.0 725.2,747.0 732.5,747.0C739.7,747.0 747.0,747.0 754.3,747.0C761.6,747.0 768.8,747.0 776.1,747.0C783.4,747.0 790.6,747.0 797.9,747.0C805.2,747.0 812.4,747.0 819.7,747.0C827.0,747.0 834.3,747.0 841.5,747.0C848.8,747.0 856.1,747.0 863.3,747.0C870.6,747.0 877.9,747.0 885.1,747.0C892.4,747.0 899.7,747.0 907.0,747.0C914.2,747.0 921.5,747.0 928.8,747.0C936.0,747.0 943.3,747.0 950.6,747.0C957.8,747.0 965.1,747.0 972.4,747.0C979.7,747.0 986.9,747.0 994.2,747.0C1001.5,747.0 1008.7,747.0 1016.0,747.0" fill="none" stroke="url(#ls-0)" stroke-width="3.5" stroke-linecap="round"/>
<circle cx="1016" cy="747" r="9" fill="#ff8f00" fill-opacity="0.22"/>
<circle cx="1016" cy="747" r="4.5" fill="#ff8f00"/>
<text x="1088" y="180" font-family="-apple-system,BlinkMacSystemFont,&quot;Segoe UI&quot;,&quot;Noto Sans CJK SC&quot;,&quot;PingFang SC&quot;,&quot;Microsoft YaHei&quot;,Helvetica,Arial,sans-serif" font-size="20" font-weight="600" fill="#9e9e9e">排名</text>
<text x="1112" y="228" font-family="-apple-system,BlinkMacSystemFont,&quot;Segoe UI&quot;,&quot;Noto Sans CJK SC&quot;,&quot;PingFang SC&quot;,&quot;Microsoft YaHei&quot;,Helvetica,Arial,sans-serif" font-size="20" font-weight="700" fill="#ff8f00" text-anchor="end">1</text>
<circle cx="1144" cy="222" r="7" fill="#ff8f00"/>
<text x="1166" y="229" font-family="-apple-system,BlinkMacSystemFont,&quot;Segoe UI&quot;,&quot;Noto Sans CJK SC&quot;,&quot;PingFang SC&quot;,&quot;Microsoft YaHei&quot;,Helvetica,Arial,sans-serif" font-size="21" fill="#cdcdcd">SpeedScout</text>
<text x="1520" y="230" font-family="-apple-system,BlinkMacSystemFont,&quot;Segoe UI&quot;,&quot;Noto Sans CJK SC&quot;,&quot;PingFang SC&quot;,&quot;Microsoft YaHei&quot;,Helvetica,Arial,sans-serif" font-size="23" font-weight="700" fill="#ff8f00" text-anchor="end">1</text>
<line x1="1088" y1="248" x2="1528" y2="248" stroke="#2e2e2e" stroke-width="1"/>
<text x="1112" y="284" font-family="-apple-system,BlinkMacSystemFont,&quot;Segoe UI&quot;,&quot;Noto Sans CJK SC&quot;,&quot;PingFang SC&quot;,&quot;Microsoft YaHei&quot;,Helvetica,Arial,sans-serif" font-size="20" font-weight="700" fill="#b87aff" text-anchor="end">2</text>
<circle cx="1144" cy="278" r="7" fill="#b87aff"/>
<text x="1166" y="285" font-family="-apple-system,BlinkMacSystemFont,&quot;Segoe UI&quot;,&quot;Noto Sans CJK SC&quot;,&quot;PingFang SC&quot;,&quot;Microsoft YaHei&quot;,Helvetica,Arial,sans-serif" font-size="21" fill="#cdcdcd">dddpeter</text>
<text x="1520" y="286" font-family="-apple-system,BlinkMacSystemFont,&quot;Segoe UI&quot;,&quot;Noto Sans CJK SC&quot;,&quot;PingFang SC&quot;,&quot;Microsoft YaHei&quot;,Helvetica,Arial,sans-serif" font-size="23" font-weight="700" fill="#b87aff" text-anchor="end">1</text>
<line x1="1088" y1="304" x2="1528" y2="304" stroke="#2e2e2e" stroke-width="1"/>
<text x="1112" y="340" font-family="-apple-system,BlinkMacSystemFont,&quot;Segoe UI&quot;,&quot;Noto Sans CJK SC&quot;,&quot;PingFang SC&quot;,&quot;Microsoft YaHei&quot;,Helvetica,Arial,sans-serif" font-size="20" font-weight="700" fill="#42aa00" text-anchor="end">3</text>
<circle cx="1144" cy="334" r="7" fill="#42aa00"/>
<text x="1166" y="341" font-family="-apple-system,BlinkMacSystemFont,&quot;Segoe UI&quot;,&quot;Noto Sans CJK SC&quot;,&quot;PingFang SC&quot;,&quot;Microsoft YaHei&quot;,Helvetica,Arial,sans-serif" font-size="21" fill="#cdcdcd">gdebi</text>
<text x="1520" y="342" font-family="-apple-system,BlinkMacSystemFont,&quot;Segoe UI&quot;,&quot;Noto Sans CJK SC&quot;,&quot;PingFang SC&quot;,&quot;Microsoft YaHei&quot;,Helvetica,Arial,sans-serif" font-size="23" font-weight="700" fill="#42aa00" text-anchor="end">1</text>
<line x1="1088" y1="360" x2="1528" y2="360" stroke="#2e2e2e" stroke-width="1"/>
<text x="1112" y="396" font-family="-apple-system,BlinkMacSystemFont,&quot;Segoe UI&quot;,&quot;Noto Sans CJK SC&quot;,&quot;PingFang SC&quot;,&quot;Microsoft YaHei&quot;,Helvetica,Arial,sans-serif" font-size="20" font-weight="400" fill="#9e9e9e" text-anchor="end">4</text>
<circle cx="1144" cy="390" r="7" fill="#d97706"/>
<text x="1166" y="397" font-family="-apple-system,BlinkMacSystemFont,&quot;Segoe UI&quot;,&quot;Noto Sans CJK SC&quot;,&quot;PingFang SC&quot;,&quot;Microsoft YaHei&quot;,Helvetica,Arial,sans-serif" font-size="21" fill="#cdcdcd">hermes-fleet</text>
<text x="1520" y="398" font-family="-apple-system,BlinkMacSystemFont,&quot;Segoe UI&quot;,&quot;Noto Sans CJK SC&quot;,&quot;PingFang SC&quot;,&quot;Microsoft YaHei&quot;,Helvetica,Arial,sans-serif" font-size="23" font-weight="700" fill="#d97706" text-anchor="end">1</text>
<line x1="1088" y1="416" x2="1528" y2="416" stroke="#2e2e2e" stroke-width="1"/>
<text x="1112" y="452" font-family="-apple-system,BlinkMacSystemFont,&quot;Segoe UI&quot;,&quot;Noto Sans CJK SC&quot;,&quot;PingFang SC&quot;,&quot;Microsoft YaHei&quot;,Helvetica,Arial,sans-serif" font-size="20" font-weight="400" fill="#9e9e9e" text-anchor="end">5</text>
<circle cx="1144" cy="446" r="7" fill="#f35248"/>
<text x="1166" y="453" font-family="-apple-system,BlinkMacSystemFont,&quot;Segoe UI&quot;,&quot;Noto Sans CJK SC&quot;,&quot;PingFang SC&quot;,&quot;Microsoft YaHei&quot;,Helvetica,Arial,sans-serif" font-size="21" fill="#cdcdcd">hermes-lark-streaming</text>
<text x="1520" y="454" font-family="-apple-system,BlinkMacSystemFont,&quot;Segoe UI&quot;,&quot;Noto Sans CJK SC&quot;,&quot;PingFang SC&quot;,&quot;Microsoft YaHei&quot;,Helvetica,Arial,sans-serif" font-size="23" font-weight="700" fill="#f35248" text-anchor="end">1</text>
<line x1="1088" y1="472" x2="1528" y2="472" stroke="#2e2e2e" stroke-width="1"/>
<text x="1112" y="508" font-family="-apple-system,BlinkMacSystemFont,&quot;Segoe UI&quot;,&quot;Noto Sans CJK SC&quot;,&quot;PingFang SC&quot;,&quot;Microsoft YaHei&quot;,Helvetica,Arial,sans-serif" font-size="20" font-weight="400" fill="#9e9e9e" text-anchor="end">6</text>
<circle cx="1144" cy="502" r="7" fill="#2563eb"/>
<text x="1166" y="509" font-family="-apple-system,BlinkMacSystemFont,&quot;Segoe UI&quot;,&quot;Noto Sans CJK SC&quot;,&quot;PingFang SC&quot;,&quot;Microsoft YaHei&quot;,Helvetica,Arial,sans-serif" font-size="21" fill="#cdcdcd">openworker</text>
<text x="1520" y="510" font-family="-apple-system,BlinkMacSystemFont,&quot;Segoe UI&quot;,&quot;Noto Sans CJK SC&quot;,&quot;PingFang SC&quot;,&quot;Microsoft YaHei&quot;,Helvetica,Arial,sans-serif" font-size="23" font-weight="700" fill="#2563eb" text-anchor="end">1</text>
<line x1="1088" y1="528" x2="1528" y2="528" stroke="#2e2e2e" stroke-width="1"/>
<text x="1112" y="564" font-family="-apple-system,BlinkMacSystemFont,&quot;Segoe UI&quot;,&quot;Noto Sans CJK SC&quot;,&quot;PingFang SC&quot;,&quot;Microsoft YaHei&quot;,Helvetica,Arial,sans-serif" font-size="20" font-weight="400" fill="#9e9e9e" text-anchor="end">7</text>
<circle cx="1144" cy="558" r="7" fill="#e3d4f6"/>
<text x="1166" y="565" font-family="-apple-system,BlinkMacSystemFont,&quot;Segoe UI&quot;,&quot;Noto Sans CJK SC&quot;,&quot;PingFang SC&quot;,&quot;Microsoft YaHei&quot;,Helvetica,Arial,sans-serif" font-size="21" fill="#cdcdcd">picoclaw</text>
<text x="1520" y="566" font-family="-apple-system,BlinkMacSystemFont,&quot;Segoe UI&quot;,&quot;Noto Sans CJK SC&quot;,&quot;PingFang SC&quot;,&quot;Microsoft YaHei&quot;,Helvetica,Arial,sans-serif" font-size="23" font-weight="700" fill="#e3d4f6" text-anchor="end">1</text>
<line x1="1088" y1="584" x2="1528" y2="584" stroke="#2e2e2e" stroke-width="1"/>
<text x="1112" y="620" font-family="-apple-system,BlinkMacSystemFont,&quot;Segoe UI&quot;,&quot;Noto Sans CJK SC&quot;,&quot;PingFang SC&quot;,&quot;Microsoft YaHei&quot;,Helvetica,Arial,sans-serif" font-size="20" font-weight="400" fill="#9e9e9e" text-anchor="end">8</text>
<circle cx="1144" cy="614" r="7" fill="#16a34a"/>
<text x="1166" y="621" font-family="-apple-system,BlinkMacSystemFont,&quot;Segoe UI&quot;,&quot;Noto Sans CJK SC&quot;,&quot;PingFang SC&quot;,&quot;Microsoft YaHei&quot;,Helvetica,Arial,sans-serif" font-size="21" fill="#cdcdcd">skill-audit</text>
<text x="1520" y="622" font-family="-apple-system,BlinkMacSystemFont,&quot;Segoe UI&quot;,&quot;Noto Sans CJK SC&quot;,&quot;PingFang SC&quot;,&quot;Microsoft YaHei&quot;,Helvetica,Arial,sans-serif" font-size="23" font-weight="700" fill="#16a34a" text-anchor="end">1</text>
<text x="800" y="866" font-family="-apple-system,BlinkMacSystemFont,&quot;Segoe UI&quot;,&quot;Noto Sans CJK SC&quot;,&quot;PingFang SC&quot;,&quot;Microsoft YaHei&quot;,Helvetica,Arial,sans-serif" font-size="16" fill="#9e9e9e" text-anchor="middle">数据来自 GitHub API · 仅统计公开仓库 · 每日自动更新</text>
</svg>