<svg xmlns="http://www.w3.org/2000/svg" width="2000" height="712" viewBox="0 0 2000 712" role="img" aria-label="dddpeter 烈焰之雨 · Building tools that turn ideas into engineering solutions">
  <defs>
    <linearGradient id="bg" x1="0" y1="0" x2="1" y2="0.4">
      <stop offset="0" stop-color="#332415"/>
      <stop offset="0.32" stop-color="#262019"/>
      <stop offset="0.55" stop-color="#212121"/>
      <stop offset="0.78" stop-color="#271B38"/>
      <stop offset="1" stop-color="#1D1730"/>
    </linearGradient>
    <radialGradient id="moon" cx="0.5" cy="0.5" r="0.5">
      <stop offset="0" stop-color="#FF8F00" stop-opacity="0.5"/>
      <stop offset="0.5" stop-color="#FF8F00" stop-opacity="0.16"/>
      <stop offset="1" stop-color="#FF8F00" stop-opacity="0"/>
    </radialGradient>
    <radialGradient id="mist" cx="0.5" cy="0.5" r="0.5">
      <stop offset="0" stop-color="#7A00C2" stop-opacity="0.28"/>
      <stop offset="1" stop-color="#7A00C2" stop-opacity="0"/>
    </radialGradient>
    <radialGradient id="glowL" cx="0.5" cy="0.5" r="0.5">
      <stop offset="0" stop-color="#FF8F00" stop-opacity="0.2"/>
      <stop offset="1" stop-color="#FF8F00" stop-opacity="0"/>
    </radialGradient>
  </defs>

  <rect width="2000" height="712" fill="url(#bg)"/>
  <ellipse cx="240" cy="120" rx="700" ry="500" fill="url(#glowL)"/>
  <ellipse cx="1750" cy="200" rx="650" ry="480" fill="url(#mist)"/>

  <!-- 顶部右侧暗角 -->
  <polygon points="1700,0 2000,0 2000,160" fill="#7A00C2" opacity="0.22"/>

  <!-- 山脉剪影 -->
  <path d="M1300,712 L1480,600 L1600,668 L1720,588 L1830,660 L1930,612 L2000,652 L2000,712 Z" fill="#171220" opacity="0.85"/>
  <path d="M1550,712 L1700,640 L1790,690 L1880,645 L2000,700 L2000,712 Z" fill="#120D1A" opacity="0.9"/>

  <!-- 轨道弧线 -->
  <path d="M950,540 Q1350,470 1990,560" stroke="#FF8F00" stroke-width="1.5" fill="none" opacity="0.22"/>
  <path d="M900,585 Q1400,520 2000,640" stroke="#B87AFF" stroke-width="1.5" fill="none" opacity="0.18"/>
  <path d="M1150,430 Q1500,380 2000,430" stroke="#CDCDCD" stroke-width="1.5" fill="none" opacity="0.14"/>

  <!-- 流星轨迹 -->
  <g fill="none" stroke-linecap="round">
    <path d="M240,470 L620,415" stroke="#FF8F00" stroke-width="1.5" opacity="0.4"/>
    <path d="M300,505 L640,455" stroke="#FF8F00" stroke-width="1.2" opacity="0.25"/>
    <path d="M120,540 L560,488" stroke="#CDCDCD" stroke-width="1.2" opacity="0.2"/>
    <path d="M200,575 L590,522" stroke="#B87AFF" stroke-width="1" opacity="0.25"/>
    <path d="M880,300 L990,352" stroke="#FFB74D" stroke-width="1.5" opacity="0.45"/>
    <path d="M930,282 L1000,345" stroke="#FFB74D" stroke-width="1" opacity="0.25"/>
  </g>

  <!-- 星座连线 -->
  <g stroke="#6E6E6E" stroke-width="1" opacity="0.6">
    <line x1="1018" y1="58" x2="1108" y2="32"/>
    <line x1="1018" y1="58" x2="872" y2="105"/>
    <line x1="872" y1="105" x2="838" y2="66"/>
    <line x1="1018" y1="58" x2="1042" y2="118"/>
    <line x1="1042" y1="118" x2="1148" y2="142"/>
    <line x1="1108" y1="32" x2="1188" y2="96"/>
    <line x1="1188" y1="96" x2="1148" y2="142"/>
  </g>

  <!-- 星点 -->
  <g fill="#FFFFFF">
    <circle cx="838" cy="66" r="2.5" fill="#FF8F00" opacity="0.95"/>
    <circle cx="872" cy="105" r="2" opacity="0.75"/>
    <circle cx="1018" cy="58" r="3" fill="#B87AFF" opacity="1"/>
    <circle cx="1108" cy="32" r="2.5" opacity="0.8"/>
    <circle cx="1188" cy="96" r="2.5" fill="#FF8F00" opacity="0.9"/>
    <circle cx="1148" cy="142" r="2" opacity="0.75"/>
    <circle cx="1042" cy="118" r="2.5" fill="#B87AFF" opacity="0.85"/>
    <circle cx="628" cy="178" r="2" fill="#FFB74D" opacity="0.7"/>
    <circle cx="700" cy="120" r="1.5" opacity="0.45"/>
    <circle cx="452" cy="338" r="2" opacity="0.35"/>
    <circle cx="392" cy="518" r="2" fill="#FF8F00" opacity="0.6"/>
    <circle cx="608" cy="558" r="1.8" opacity="0.45"/>
    <circle cx="702" cy="432" r="1.5" fill="#B87AFF" opacity="0.6"/>
    <circle cx="1240" cy="420" r="2" opacity="0.45"/>
    <circle cx="1312" cy="468" r="1.6" fill="#FF8F00" opacity="0.6"/>
    <circle cx="1258" cy="196" r="2" opacity="0.5"/>
    <circle cx="1352" cy="262" r="1.6" opacity="0.35"/>
    <circle cx="880" cy="258" r="1.5" opacity="0.4"/>
    <circle cx="545" cy="470" r="1.5" fill="#FFB74D" opacity="0.5"/>
    <circle cx="1508" cy="196" r="2" fill="#B87AFF" opacity="0.5"/>
    <circle cx="1618" cy="318" r="1.8" opacity="0.4"/>
    <circle cx="1758" cy="268" r="2" fill="#B87AFF" opacity="0.4"/>
  </g>

  <!-- 中央光球（南瓜月） -->
  <ellipse cx="1020" cy="368" rx="80" ry="18" fill="url(#moon)"/>
  <circle cx="1020" cy="368" r="34" fill="#FF8F00" opacity="0.3"/>
  <circle cx="1020" cy="368" r="20" fill="#FFB74D" opacity="0.5"/>
  <circle cx="1020" cy="368" r="11" fill="#FFE3B0"/>

  <!-- SINCE 2012 装饰圆环 -->
  <circle cx="150" cy="600" r="42" stroke="#FF8F00" stroke-width="1.2" fill="none" opacity="0.55"/>

  <!-- 左侧主文案 -->
  <text x="118" y="248" font-family="'Segoe UI','PingFang SC','Hiragino Sans GB','Microsoft YaHei',Helvetica,Arial,sans-serif" font-size="118" font-weight="800" fill="#F5F5F5">dddpeter</text>
  <text x="122" y="318" font-family="'PingFang SC','Hiragino Sans GB','Microsoft YaHei',sans-serif" font-size="40" font-weight="600" fill="#FF8F00" letter-spacing="12">烈焰之雨</text>
  <text x="122" y="420" font-family="'Segoe UI','PingFang SC',Helvetica,Arial,sans-serif" font-size="33" font-style="italic" font-weight="500" fill="#CDCDCD">Building tools that turn ideas into engineering solutions.</text>
  <text x="122" y="577" font-family="'Segoe UI',Helvetica,Arial,sans-serif" font-size="22" font-weight="700" fill="#FF8F00" letter-spacing="6">SINCE 2012</text>
  <text x="122" y="630" font-family="'PingFang SC','Microsoft YaHei',sans-serif" font-size="42" font-weight="700" fill="#F5F5F5">14 年 · 6 个精选项目</text>

  <!-- 右侧 CURRENT FOCUS -->
  <text x="1340" y="222" font-family="'Segoe UI',Helvetica,Arial,sans-serif" font-size="30" font-weight="700" fill="#B87AFF" letter-spacing="8">CURRENT FOCUS</text>
  <text x="1340" y="282" font-family="'PingFang SC','Microsoft YaHei',sans-serif" font-size="32" fill="#E3D4F6">DevOps 自动化 · macOS 效率 · 跨平台</text>
  <text x="1340" y="330" font-family="'Segoe UI','PingFang SC',sans-serif" font-size="32" fill="#E3D4F6">Rust · Flutter · WebAssembly</text>

  <!-- 中部公众号 -->
  <text x="932" y="575" font-family="'PingFang SC','Microsoft YaHei',sans-serif" font-size="24" font-weight="600" fill="#42AA00" letter-spacing="6">公众号</text>
  <text x="932" y="622" font-family="'PingFang SC','Microsoft YaHei',sans-serif" font-size="40" font-weight="600" fill="#F5F5F5">烈焰之雨空间</text>

  <!-- 右下 slogan -->
  <text x="1930" y="690" text-anchor="end" font-family="'PingFang SC','Microsoft YaHei',sans-serif" font-size="22" font-weight="500" fill="#CDCDCD" opacity="0.75">烈焰般热忱 · 细雨般分享</text>
</svg>
